<?xml version="1.0" ?><svg viewBox="0 0 48 48" xmlns="http://www.w3.org/2000/svg"><title/><g data-name="9-Money" id="_9-Money"><path d="M45,9H3a3,3,0,0,0-3,3V36a3,3,0,0,0,3,3H45a3,3,0,0,0,3-3V12A3,3,0,0,0,45,9Zm1,27a1,1,0,0,1-1,1H3a1,1,0,0,1-1-1V12a1,1,0,0,1,1-1H45a1,1,0,0,1,1,1Z"/><path d="M42,19a4,4,0,0,1-4-4,1,1,0,0,0-1-1H11a1,1,0,0,0-1,1,4,4,0,0,1-4,4,1,1,0,0,0-1,1v8a1,1,0,0,0,1,1,4,4,0,0,1,4,4,1,1,0,0,0,1,1H37a1,1,0,0,0,1-1,4,4,0,0,1,4-4,1,1,0,0,0,1-1V20A1,1,0,0,0,42,19ZM11.92,32A6,6,0,0,0,7,27.08V20.92A6,6,0,0,0,11.92,16H18a10,10,0,0,0,0,16ZM24,32a8,8,0,1,1,8-8A8,8,0,0,1,24,32Zm17-4.92A6,6,0,0,0,36.08,32H30a10,10,0,0,0,0-16h6.11A6,6,0,0,0,41,20.92Z"/><rect height="2" width="2" x="5" y="14"/><rect height="2" width="2" x="41" y="14"/><rect height="2" width="2" x="41" y="32"/><rect height="2" width="2" x="5" y="32"/></g></svg>